<?xml version="1.0" standalone="no"?>
<!DOCTYPE svg PUBLIC "-//W3C//DTD SVG 20010904//EN"
 "http://www.w3.org/TR/2001/REC-SVG-20010904/DTD/svg10.dtd">
<svg version="1.0" xmlns="http://www.w3.org/2000/svg"
 width="256.000000pt" height="256.000000pt" viewBox="0 0 256.000000 256.000000"
 preserveAspectRatio="xMidYMid meet">
<metadata>
Created by potrace 1.14, written by Peter Selinger 2001-2017
</metadata>
<g transform="translate(0.000000,256.000000) scale(0.100000,-0.100000)"
fill="#000000" stroke="none">
<path d="M830 2453 c0 -4 -53 -8 -118 -8 -64 0 -119 -3 -122 -7 -4 -4 -23 -9
-43 -10 -20 -2 -37 -6 -37 -10 0 -4 -10 -10 -22 -13 -42 -13 -138 -76 -181
-119 -42 -42 -107 -128 -107 -141 0 -4 -6 -21 -14 -38 -8 -18 -17 -45 -22 -62
-4 -16 -9 -37 -11 -45 -2 -8 -6 -119 -7 -246 -2 -127 -6 -236 -10 -242 -3 -6
-2 -13 4 -17 5 -3 10 -11 10 -16 0 -6 -6 -7 -12 -3 -10 6 -10 4 -2 -7 11 -16
13 -417 1 -436 -4 -6 -3 -14 3 -18 5 -3 10 -11 10 -16 0 -6 -5 -7 -12 -3 -7 5
-8 3 -3 -6 5 -8 10 -93 11 -189 3 -186 3 -185 23 -243 7 -21 9 -43 5 -49 -4
-7 -3 -9 3 -6 6 4 16 -6 23 -22 6 -17 23 -44 36 -62 13 -18 21 -36 18 -41 -3
-5 0 -7 8 -6 7 2 12 -5 12 -14 -1 -10 3 -15 8 -12 5 3 24 -9 42 -28 41 -41 55
-50 136 -89 36 -17 68 -37 72 -43 5 -7 8 -7 8 3 0 10 6 10 26 -4 15 -9 24 -13
20 -7 -3 6 10 7 37 2 23 -4 321 -8 663 -7 341 0 627 -4 634 -8 9 -5 11 -4 6 3
-5 8 1 12 16 13 13 0 34 3 48 6 14 3 35 6 47 7 11 1 19 4 17 7 -4 7 31 19 50
18 5 -1 12 3 15 8 15 20 73 53 83 47 6 -4 8 -3 5 3 -9 14 19 37 32 28 7 -4 8
1 4 11 -5 14 -3 16 11 11 10 -4 15 -3 11 3 -8 13 20 42 30 32 5 -4 5 -2 2 4
-3 6 2 20 11 30 16 17 67 115 87 169 17 43 19 131 19 745 -1 637 -3 730 -16
730 -5 0 -8 7 -8 16 0 20 -56 139 -79 167 -9 11 -33 37 -54 58 -22 21 -36 42
-32 48 3 7 0 8 -9 5 -8 -3 -23 3 -33 13 -49 48 -192 94 -309 98 -34 1 -67 6
-73 9 -6 4 -11 4 -11 -1 0 -4 -31 -8 -70 -8 -38 0 -70 4 -70 8 0 4 -8 4 -17 0
-22 -10 -295 -9 -311 1 -7 4 -12 4 -12 -1 0 -4 -31 -8 -70 -8 -38 0 -70 4 -70
8 0 4 -8 4 -17 0 -22 -10 -295 -9 -311 1 -7 4 -12 4 -12 -1z"/>
<path d="M435 211 c-3 -5 -2 -12 3 -15 5 -3 9 1 9 9 0 17 -3 19 -12 6z"/>
</g>
</svg>
